<?xml version="1.0" encoding="UTF-8"?>
<svg version="1.1" xmlns="http://www.w3.org/2000/svg" width="50" height="50">
<path d="M0 0 C0.89821976 -0.0004985 1.79643951 -0.00099701 2.72187805 -0.00151062 C4.61384299 0.00082365 6.5058114 0.01051394 8.39770508 0.02709961 C11.30122416 0.05078486 14.20383013 0.04764427 17.10742188 0.04101562 C18.94662008 0.04658959 20.78581441 0.05369769 22.625 0.0625 C23.49581711 0.06158859 24.36663422 0.06067719 25.26383972 0.05973816 C31.38222553 0.13222553 31.38222553 0.13222553 33.61328125 2.36328125 C34.6261468 8.27604833 34.88538838 14.18461019 34.98828125 20.17578125 C35.04435547 21.44325195 35.04435547 21.44325195 35.1015625 22.73632812 C35.11316406 23.54779297 35.12476563 24.35925781 35.13671875 25.1953125 C35.16644775 26.28936401 35.16644775 26.28936401 35.19677734 27.40551758 C34.61328125 29.36328125 34.61328125 29.36328125 32.46533203 31.10327148 C29.21398987 32.5396845 27.00107168 32.72253198 23.45703125 32.69140625 C22.26851562 32.68625 21.08 32.68109375 19.85546875 32.67578125 C18.62054688 32.65515625 17.385625 32.63453125 16.11328125 32.61328125 C14.30730469 32.60554688 14.30730469 32.60554688 12.46484375 32.59765625 C6.45691143 32.54597511 0.45612012 32.36732057 -5.54296875 32.03515625 C-6.57228516 31.9794043 -7.60160156 31.92365234 -8.66210938 31.86621094 C-11.7006135 31.3053401 -13.17155937 30.49120143 -15.38671875 28.36328125 C-15.8125 26.15625 -15.8125 26.15625 -15.69921875 23.55078125 C-15.65796875 22.58527344 -15.61671875 21.61976562 -15.57421875 20.625 C-15.51234375 19.54863281 -15.45046875 18.47226562 -15.38671875 17.36328125 C-15.36609375 16.13222656 -15.34546875 14.90117187 -15.32421875 13.6328125 C-15.28296875 12.38886719 -15.24171875 11.14492188 -15.19921875 9.86328125 C-15.16441406 8.69796875 -15.12960937 7.53265625 -15.09375 6.33203125 C-14.38671875 3.36328125 -14.38671875 3.36328125 -12.42919922 1.70043945 C-8.22448811 -0.14751455 -4.54396141 -0.04839434 0 0 Z M-12.38671875 4.36328125 C-12.40341936 6.07331156 -12.34962733 7.78414003 -12.265625 9.4921875 C-12.22252197 10.42361572 -12.17941895 11.35504395 -12.13500977 12.31469727 C-12.07369873 13.50635498 -12.0123877 14.6980127 -11.94921875 15.92578125 C-11.76359375 19.70015625 -11.57796875 23.47453125 -11.38671875 27.36328125 C2.47328125 27.36328125 16.33328125 27.36328125 30.61328125 27.36328125 C30.61328125 19.77328125 30.61328125 12.18328125 30.61328125 4.36328125 C21.16926494 3.52529107 11.84202968 3.20941197 2.36328125 3.23828125 C1.04714844 3.23441406 -0.26898438 3.23054687 -1.625 3.2265625 C-2.87152344 3.22785156 -4.11804688 3.22914062 -5.40234375 3.23046875 C-7.09278809 3.23216064 -7.09278809 3.23216064 -8.81738281 3.23388672 C-11.31893979 3.07195356 -11.31893979 3.07195356 -12.38671875 4.36328125 Z " fill="#242424" transform="translate(15.38671875,6.63671875)"/>
<path d="M0 0 C2.875 -0.125 2.875 -0.125 6 0 C6.66 0.66 7.32 1.32 8 2 C7.625 5.125 7.625 5.125 7 8 C7.804375 8.226875 8.60875 8.45375 9.4375 8.6875 C12 10 12 10 12.875 12.5625 C12.91625 13.366875 12.9575 14.17125 13 15 C12 16 12 16 10.23413086 16.11352539 C9.48526611 16.10828857 8.73640137 16.10305176 7.96484375 16.09765625 C7.15595703 16.09443359 6.34707031 16.09121094 5.51367188 16.08789062 C4.66353516 16.07951172 3.81339844 16.07113281 2.9375 16.0625 C2.08349609 16.05798828 1.22949219 16.05347656 0.34960938 16.04882812 C-1.76695663 16.03700373 -3.88348685 16.01906769 -6 16 C-6.33 15.34 -6.66 14.68 -7 14 C-4.82491582 9.30639731 -4.82491582 9.30639731 -1.8125 8.1875 C-1.214375 8.125625 -0.61625 8.06375 0 8 C-0.33 7.67 -0.66 7.34 -1 7 C-0.71269945 4.66055264 -0.38063221 2.3260857 0 0 Z " fill="#333333" transform="translate(12,16)"/>
<path d="M0 0 C0.33 0 0.66 0 1 0 C1 4.95 1 9.9 1 15 C14.86 15 28.72 15 43 15 C43 15.33 43 15.66 43 16 C24.19 16.495 24.19 16.495 5 17 C24.8 17.495 24.8 17.495 45 18 C41.51546009 20.32302661 40.150616 20.24618994 36.0390625 20.23046875 C34.84410156 20.22853516 33.64914063 20.22660156 32.41796875 20.22460938 C30.54044922 20.20624023 30.54044922 20.20624023 28.625 20.1875 C27.41199219 20.18685547 26.19898437 20.18621094 24.94921875 20.18554688 C18.9051874 20.15652004 12.87106492 20.01087853 6.8359375 19.67578125 C5.80774902 19.61946533 4.77956055 19.56314941 3.72021484 19.50512695 C0.6765933 18.93994539 -0.79938404 18.1565907 -3 16 C-3.390625 13.30078125 -3.390625 13.30078125 -3.25 10.3125 C-3.21390625 9.31863281 -3.1778125 8.32476562 -3.140625 7.30078125 C-3.09421875 6.54152344 -3.0478125 5.78226563 -3 5 C-2.67 5 -2.34 5 -2 5 C-1.67 7.31 -1.34 9.62 -1 12 C-0.67 8.04 -0.34 4.08 0 0 Z " fill="#B7B7B7" transform="translate(3,19)"/>
<path d="M0 0 C1.28785652 0.03966133 1.28785652 0.03966133 2.60173035 0.0801239 C5.33287302 0.16760663 8.062644 0.27685185 10.79296875 0.38671875 C12.64904003 0.45000678 14.50516042 0.51187184 16.36132812 0.57226562 C20.90177583 0.72310221 25.44111799 0.89345515 29.98046875 1.07421875 C29.98046875 1.40421875 29.98046875 1.73421875 29.98046875 2.07421875 C9.68546875 3.06421875 9.68546875 3.06421875 -11.01953125 4.07421875 C-11.34953125 11.99421875 -11.67953125 19.91421875 -12.01953125 28.07421875 C-14.55192897 23.00942331 -14.42318625 19.08110124 -14.45703125 13.51171875 C-14.48990234 12.55330078 -14.52277344 11.59488281 -14.55664062 10.60742188 C-14.56373047 9.68767578 -14.57082031 8.76792969 -14.578125 7.8203125 C-14.59157959 6.98169678 -14.60503418 6.14308105 -14.61889648 5.27905273 C-14.01953125 3.07421875 -14.01953125 3.07421875 -12.04833984 1.28222656 C-7.91182482 -0.36757807 -4.40190569 -0.19877984 0 0 Z " fill="#0B0B0B" transform="translate(15.01953125,6.92578125)"/>
<path d="M0 0 C4.94790177 -0.0493651 9.89566083 -0.08570269 14.84375 -0.10986328 C16.52769466 -0.11993317 18.21162179 -0.13358988 19.89550781 -0.15087891 C22.31319501 -0.17508426 24.73065143 -0.18647296 27.1484375 -0.1953125 C27.9036972 -0.20563507 28.65895691 -0.21595764 29.43710327 -0.22659302 C31.2929398 -0.22699318 33.1481928 -0.12222716 35 0 C35.66 0.66 36.32 1.32 37 2 C36.64477539 3.81347656 36.64477539 3.81347656 36 6 C35.85701869 7.6586512 35.75458775 9.3210869 35.68359375 10.984375 C35.62075195 12.38623047 35.62075195 12.38623047 35.55664062 13.81640625 C35.51732422 14.78449219 35.47800781 15.75257812 35.4375 16.75 C35.37272461 18.22533203 35.37272461 18.22533203 35.30664062 19.73046875 C35.20077948 22.15351275 35.09869829 24.5766554 35 27 C34.67 27 34.34 27 34 27 C34 19.41 34 11.82 34 4 C31.0609375 4.0309375 31.0609375 4.0309375 28.0625 4.0625 C22.61512328 4.06845993 17.39392725 3.73137997 12 3 C12 2.67 12 2.34 12 2 C8.04 1.67 4.08 1.34 0 1 C0 0.67 0 0.34 0 0 Z " fill="#656565" transform="translate(12,7)"/>
<path d="M0 0 C2.875 -0.125 2.875 -0.125 6 0 C6.66 0.66 7.32 1.32 8 2 C7.625 5.125 7.625 5.125 7 8 C7.99 8.66 8.98 9.32 10 10 C5.05 10.33 0.1 10.66 -5 11 C-4.67 10.34 -4.34 9.68 -4 9 C-1.9375 8.375 -1.9375 8.375 0 8 C-0.33 7.67 -0.66 7.34 -1 7 C-0.71269945 4.66055264 -0.38063221 2.3260857 0 0 Z " fill="#2A2A2A" transform="translate(12,16)"/>
<path d="M0 0 C5.28 0 10.56 0 16 0 C16 1.32 16 2.64 16 4 C11.05 4 6.1 4 1 4 C0.67 2.68 0.34 1.36 0 0 Z " fill="#5B5B5B" transform="translate(27,28)"/>
<path d="M0 0 C4.95 0 9.9 0 15 0 C15 1.32 15 2.64 15 4 C10.05 4 5.1 4 0 4 C0 2.68 0 1.36 0 0 Z " fill="#535353" transform="translate(28,22)"/>
<path d="M0 0 C4.95 0 9.9 0 15 0 C15 1.32 15 2.64 15 4 C10.05 4 5.1 4 0 4 C0 2.68 0 1.36 0 0 Z " fill="#555555" transform="translate(28,16)"/>
<path d="M0 0 C0.33 0 0.66 0 1 0 C1 5.28 1 10.56 1 16 C2.32 16.33 3.64 16.66 5 17 C2.125 17.625 2.125 17.625 -1 18 C-3 16 -3 16 -3.1953125 13.3984375 C-3.17210937 12.40070312 -3.14890625 11.40296875 -3.125 10.375 C-3.10695312 9.37210938 -3.08890625 8.36921875 -3.0703125 7.3359375 C-3.04710937 6.56507812 -3.02390625 5.79421875 -3 5 C-2.67 5 -2.34 5 -2 5 C-1.67 7.31 -1.34 9.62 -1 12 C-0.67 8.04 -0.34 4.08 0 0 Z " fill="#686868" transform="translate(3,19)"/>
<path d="M0 0 C0.99 0.99 1.98 1.98 3 3 C-1.95 3.33 -6.9 3.66 -12 4 C-9.6203786 -0.75924281 -4.77749009 -0.43431728 0 0 Z " fill="#8A8A8A" transform="translate(19,23)"/>
</svg>
