<?xml version="1.0" encoding="UTF-8"?>
<svg version="1.1" xmlns="http://www.w3.org/2000/svg" width="50" height="50">
<path d="M0 0 C0.75925781 -0.02578125 1.51851562 -0.0515625 2.30078125 -0.078125 C4.6875 0.25 4.6875 0.25 7.01953125 1.80078125 C10.65192725 3.77386897 13.003974 3.21025132 17.0625 2.6875 C23.20125049 2.03272974 26.79731566 2.31399797 31.6875 6.25 C32 8.5625 32 8.5625 31.6875 11.25 C28.57803833 14.03779322 25.21356663 14.57890723 21.25 15.4375 C15.84210057 16.79309946 13.95378818 18.77489691 11.01953125 23.375 C9.05461224 26.14086841 6.84099862 27.15313092 3.6875 28.25 C2.3675 28.25 1.0475 28.25 -0.3125 28.25 C0.5625 23.5 0.5625 23.5 1.6875 21.25 C0.08634424 21.0006643 -1.51870159 20.77621352 -3.125 20.5625 C-4.46498047 20.37107422 -4.46498047 20.37107422 -5.83203125 20.17578125 C-8.37121609 19.97742405 -8.37121609 19.97742405 -9.88671875 21.73046875 C-10.59248047 22.48263672 -10.59248047 22.48263672 -11.3125 23.25 C-12.6325 23.25 -13.9525 23.25 -15.3125 23.25 C-15.065 22.033125 -14.8175 20.81625 -14.5625 19.5625 C-14.09912888 16.05941435 -14.10146543 15.54953294 -16.25 12.5 C-16.930625 11.7575 -17.61125 11.015 -18.3125 10.25 C-18.3125 8.93 -18.3125 7.61 -18.3125 6.25 C-15.625 5.5 -15.625 5.5 -12.3125 5.25 C-11.4875 5.930625 -10.6625 6.61125 -9.8125 7.3125 C-8.9875 7.951875 -8.1625 8.59125 -7.3125 9.25 C-4.03145528 8.62963682 -4.03145528 8.62963682 -1.3125 7.25 C-2.1375 6.816875 -2.9625 6.38375 -3.8125 5.9375 C-5.05 5.1021875 -5.05 5.1021875 -6.3125 4.25 C-6.3125 3.26 -6.3125 2.27 -6.3125 1.25 C-4.01372891 0.10061445 -2.55787319 0.05158736 0 0 Z " fill="#0C1114" transform="translate(18.3125,10.75)"/>
<path d="M0 0 C0 0.33 0 0.66 0 1 C1.98 1.66 3.96 2.32 6 3 C3.12249207 4.61738031 0.94836246 5.15369492 -2.3125 5.4375 C-5.70881427 6.10782518 -6.78428812 6.73373065 -9 9.46875 C-10.18266757 11.40587791 -11.31723686 13.37344415 -12.39453125 15.37109375 C-14.03207259 18.0525179 -15.25287099 19.4942063 -18 21 C-18.99 20.67 -19.98 20.34 -21 20 C-19.35 16.7 -17.7 13.4 -16 10 C-16.83144531 10.2165625 -17.66289062 10.433125 -18.51953125 10.65625 C-19.60621094 10.9346875 -20.69289063 11.213125 -21.8125 11.5 C-22.89144531 11.7784375 -23.97039063 12.056875 -25.08203125 12.34375 C-28 13 -28 13 -31 13 C-31 12.01 -31 11.02 -31 10 C-31.99 10 -32.98 10 -34 10 C-33.79375 10.598125 -33.5875 11.19625 -33.375 11.8125 C-33 14 -33 14 -35 17 C-35.66 17 -36.32 17 -37 17 C-36.7525 16.13375 -36.505 15.2675 -36.25 14.375 C-35.92570123 9.99696655 -37.42467828 8.43376229 -40 5 C-40 4.34 -40 3.68 -40 3 C-35.33441043 3.63048508 -35.33441043 3.63048508 -33.57666016 5.57275391 C-32.79621338 6.27924072 -32.79621338 6.27924072 -32 7 C-28.97651478 6.63187106 -26.304569 6.12433516 -23.375 5.375 C-22.56264893 5.18131836 -21.75029785 4.98763672 -20.91333008 4.78808594 C-16.77339913 3.77938023 -12.71216223 2.65760682 -8.6875 1.25 C-5.4738906 0.16064088 -3.33890302 -0.32311965 0 0 Z " fill="#DDDDDD" transform="translate(42,15)"/>
<path d="M0 0 C3.0625 1.5 3.0625 1.5 5 3 C1.61725734 4.12758089 0.23221777 3.81750262 -3.1875 3.0625 C-4.08855469 2.86785156 -4.98960938 2.67320313 -5.91796875 2.47265625 C-6.60503906 2.31667969 -7.29210938 2.16070312 -8 2 C-8 2.66 -8 3.32 -8 4 C-6.824375 4.4640625 -6.824375 4.4640625 -5.625 4.9375 C-3 6 -3 6 -1 7 C-1 7.66 -1 8.32 -1 9 C-2.90773407 9.6119147 -4.82677265 10.18867527 -6.75 10.75 C-7.81734375 11.07484375 -8.8846875 11.3996875 -9.984375 11.734375 C-11.47710938 11.86585937 -11.47710938 11.86585937 -13 12 C-15.140625 10.140625 -15.140625 10.140625 -17 8 C-19.1381966 7.2127322 -19.1381966 7.2127322 -21 7 C-20.61585937 7.50789063 -20.23171875 8.01578125 -19.8359375 8.5390625 C-18.35290637 10.65654545 -17.06150424 12.6401619 -16 15 C-16.6875 18.5 -16.6875 18.5 -18 21 C-16.4166747 19.7511573 -16.4166747 19.7511573 -15 18 C-15 16.68 -15 15.36 -15 14 C-14.01 14 -13.02 14 -12 14 C-12 14.99 -12 15.98 -12 17 C-6.72 15.68 -1.44 14.36 4 13 C2.53867783 17.38396651 1.416361 20.26562391 -1 24 C-0.34 24.66 0.32 25.32 1 26 C-0.65 25.67 -2.3 25.34 -4 25 C-3.67 23.68 -3.34 22.36 -3 21 C-4.60115576 20.7506643 -6.20620159 20.52621352 -7.8125 20.3125 C-9.15248047 20.12107422 -9.15248047 20.12107422 -10.51953125 19.92578125 C-13.05871609 19.72742405 -13.05871609 19.72742405 -14.57421875 21.48046875 C-15.27998047 22.23263672 -15.27998047 22.23263672 -16 23 C-17.32 23 -18.64 23 -20 23 C-19.7525 21.783125 -19.505 20.56625 -19.25 19.3125 C-18.78662888 15.80941435 -18.78896543 15.29953294 -20.9375 12.25 C-21.618125 11.5075 -22.29875 10.765 -23 10 C-23 8.68 -23 7.36 -23 6 C-20.3125 5.25 -20.3125 5.25 -17 5 C-16.175 5.680625 -15.35 6.36125 -14.5 7.0625 C-13.675 7.701875 -12.85 8.34125 -12 9 C-8.71895528 8.37963682 -8.71895528 8.37963682 -6 7 C-6.825 6.566875 -7.65 6.13375 -8.5 5.6875 C-9.7375 4.8521875 -9.7375 4.8521875 -11 4 C-11 3.01 -11 2.02 -11 1 C-7.56143022 -0.71928489 -3.76751104 -0.38974252 0 0 Z " fill="#0F1419" transform="translate(23,11)"/>
<path d="M0 0 C3.0625 1.5 3.0625 1.5 5 3 C1.61725734 4.12758089 0.23221777 3.81750262 -3.1875 3.0625 C-4.08855469 2.86785156 -4.98960938 2.67320313 -5.91796875 2.47265625 C-6.60503906 2.31667969 -7.29210938 2.16070312 -8 2 C-8 2.66 -8 3.32 -8 4 C-6.824375 4.4640625 -6.824375 4.4640625 -5.625 4.9375 C-3 6 -3 6 -1 7 C-1 7.66 -1 8.32 -1 9 C-2.90773407 9.6119147 -4.82677265 10.18867527 -6.75 10.75 C-7.81734375 11.07484375 -8.8846875 11.3996875 -9.984375 11.734375 C-13 12 -13 12 -15.25 10.125 C-16.11625 9.073125 -16.11625 9.073125 -17 8 C-19.1381966 7.2127322 -19.1381966 7.2127322 -21 7 C-20.34 7.94875 -19.68 8.8975 -19 9.875 C-17 13 -17 13 -17 15 C-20.16115776 13.63016497 -20.9927092 13.0109362 -23 10 C-23 8.68 -23 7.36 -23 6 C-20.3125 5.25 -20.3125 5.25 -17 5 C-16.175 5.680625 -15.35 6.36125 -14.5 7.0625 C-13.675 7.701875 -12.85 8.34125 -12 9 C-8.71895528 8.37963682 -8.71895528 8.37963682 -6 7 C-6.825 6.566875 -7.65 6.13375 -8.5 5.6875 C-9.7375 4.8521875 -9.7375 4.8521875 -11 4 C-11 3.01 -11 2.02 -11 1 C-7.56143022 -0.71928489 -3.76751104 -0.38974252 0 0 Z " fill="#121212" transform="translate(23,11)"/>
<path d="M0 0 C4.69268293 0.63414634 4.69268293 0.63414634 6.3125 2.5625 C7.97326794 4.28168071 7.97326794 4.28168071 10.69921875 4.07421875 C11.68535156 3.94660156 12.67148438 3.81898437 13.6875 3.6875 C14.68136719 3.56761719 15.67523438 3.44773437 16.69921875 3.32421875 C17.45847656 3.21722656 18.21773437 3.11023438 19 3 C19.33 4.32 19.66 5.64 20 7 C17.09907498 8.93395001 16.10325263 9.30131941 12.8125 9.625 C11.554375 9.74875 10.29625 9.8725 9 10 C9 9.01 9 8.02 9 7 C8.01 7 7.02 7 6 7 C6.20625 7.598125 6.4125 8.19625 6.625 8.8125 C7 11 7 11 5 14 C4.34 14 3.68 14 3 14 C3.2475 13.13375 3.495 12.2675 3.75 11.375 C4.07429877 6.99696655 2.57532172 5.43376229 0 2 C0 1.34 0 0.68 0 0 Z " fill="#E3E3E3" transform="translate(2,18)"/>
<path d="M0 0 C3.67420866 0.30618405 4.78135513 0.75771784 7.3125 3.5625 C8.1478125 4.7690625 8.1478125 4.7690625 9 6 C8.01 6.33 7.02 6.66 6 7 C6.20625 7.598125 6.4125 8.19625 6.625 8.8125 C7 11 7 11 5 14 C4.34 14 3.68 14 3 14 C3.2475 13.13375 3.495 12.2675 3.75 11.375 C4.07429877 6.99696655 2.57532172 5.43376229 0 2 C0 1.34 0 0.68 0 0 Z " fill="#A6B6C7" transform="translate(2,18)"/>
<path d="M0 0 C5.52677733 -0.19392201 9.75614911 0.2520497 15 2 C14.67 2.66 14.34 3.32 14 4 C9.69002151 5.18435359 6.06120391 5.45480168 1.9375 3.6875 C1.298125 3.130625 0.65875 2.57375 0 2 C0 1.34 0 0.68 0 0 Z " fill="#D7D7D7" transform="translate(15,13)"/>
<path d="M0 0 C0 0.99 0 1.98 0 3 C-4.70406799 4.86540627 -8.94744036 6.36843005 -14 7 C-13.67 5.68 -13.34 4.36 -13 3 C-8.71 2.01 -4.42 1.02 0 0 Z " fill="#376280" transform="translate(48,18)"/>
<path d="M0 0 C0.8125 1.625 0.8125 1.625 1 4 C-1.82147781 8.14923207 -4.00091602 10.7181836 -9 12 C-10.32 12 -11.64 12 -13 12 C-13 11.01 -13 10.02 -13 9 C-10.03 9.495 -10.03 9.495 -7 10 C-7 9.34 -7 8.68 -7 8 C-5.35511706 6.31183067 -3.68662458 4.64646685 -2 3 C-1.34 2.01 -0.68 1.02 0 0 Z " fill="#131313" transform="translate(31,27)"/>
<path d="M0 0 C0.33 0.66 0.66 1.32 1 2 C0.01 3.32 -0.98 4.64 -2 6 C-2 5.34 -2 4.68 -2 4 C-2.99 4.495 -2.99 4.495 -4 5 C-7 5.1875 -7 5.1875 -10 5 C-10.66 4.34 -11.32 3.68 -12 3 C-8.04 2.01 -4.08 1.02 0 0 Z " fill="#334F63" transform="translate(26,24)"/>
<path d="M0 0 C-0.33 0.66 -0.66 1.32 -1 2 C-0.34 2.33 0.32 2.66 1 3 C1 4.32 1 5.64 1 7 C0.34 6.67 -0.32 6.34 -1 6 C-1.66 5.9175 -2.32 5.835 -3 5.75 C-5 5 -5 5 -6.25 2.4375 C-6.4975 1.633125 -6.745 0.82875 -7 0 C-3.86650268 -1.04449911 -3.01031744 -0.93423645 0 0 Z " fill="#CFCFCF" transform="translate(27,20)"/>
<path d="M0 0 C0 0.66 0 1.32 0 2 C-4.62 3.32 -9.24 4.64 -14 6 C-14.33 5.34 -14.66 4.68 -15 4 C-13.06441401 3.32779649 -11.12645628 2.66241923 -9.1875 2 C-8.10855469 1.62875 -7.02960937 1.2575 -5.91796875 0.875 C-3 0 -3 0 0 0 Z " fill="#353535" transform="translate(37,14)"/>
<path d="M0 0 C0.66 0 1.32 0 2 0 C1.125 4.75 1.125 4.75 0 7 C0.66 7.66 1.32 8.32 2 9 C0.35 8.67 -1.3 8.34 -3 8 C-1.125 1.125 -1.125 1.125 0 0 Z " fill="#1D1E1F" transform="translate(22,28)"/>
<path d="M0 0 C2.64 0 5.28 0 8 0 C7.34 0.66 6.68 1.32 6 2 C6.33 2.99 6.66 3.98 7 5 C2.25 3.125 2.25 3.125 0 2 C0 1.34 0 0.68 0 0 Z " fill="#BFBFBF" transform="translate(15,13)"/>
<path d="M0 0 C-3.26545761 1.88391785 -6.28111761 2.49287967 -10 3 C-10.33 2.01 -10.66 1.02 -11 0 C-6.98195309 -0.84098656 -3.98196457 -1.05404945 0 0 Z " fill="#212121" transform="translate(20,20)"/>
<path d="M0 0 C1.2065625 0.0309375 1.2065625 0.0309375 2.4375 0.0625 C2.7675 1.0525 3.0975 2.0425 3.4375 3.0625 C4.0975 3.3925 4.7575 3.7225 5.4375 4.0625 C2.29125007 4.32468749 0.81912983 4.31004367 -1.875 2.5625 C-2.431875 2.0675 -2.98875 1.5725 -3.5625 1.0625 C-2.5625 0.0625 -2.5625 0.0625 0 0 Z " fill="#181818" transform="translate(40.5625,12.9375)"/>
<path d="M0 0 C0.33 0.99 0.66 1.98 1 3 C-0.3125 5.1875 -0.3125 5.1875 -2 7 C-2.66 7 -3.32 7 -4 7 C-2.92598892 4.08482708 -2.22189824 2.22189824 0 0 Z " fill="#ECECEC" transform="translate(29,27)"/>
</svg>
