<?xml version="1.0" encoding="UTF-8"?>
<svg version="1.1" xmlns="http://www.w3.org/2000/svg" width="50" height="50">
<path d="M0 0 C0.85758911 -0.00315216 1.71517822 -0.00630432 2.59875488 -0.009552 C3.53102905 -0.00752777 4.46330322 -0.00550354 5.42382812 -0.00341797 C6.84979309 -0.00485306 6.84979309 -0.00485306 8.30456543 -0.00631714 C10.31876695 -0.00699904 12.33297065 -0.00514409 14.34716797 -0.00097656 C17.44178167 0.00437155 20.53625022 -0.00092124 23.63085938 -0.00732422 C25.58268261 -0.00666344 27.53450576 -0.00538228 29.48632812 -0.00341797 C30.88473938 -0.00645432 30.88473938 -0.00645432 32.31140137 -0.009552 C33.16899048 -0.00639984 34.02657959 -0.00324768 34.91015625 0 C35.66880981 0.00079559 36.42746338 0.00159119 37.20910645 0.00241089 C38.95507812 0.12939453 38.95507812 0.12939453 39.95507812 1.12939453 C40.04351606 3.5776988 40.07036564 5.99760052 40.05273438 8.44580078 C40.05131943 9.17685532 40.04990448 9.90790985 40.04844666 10.66111755 C40.04283221 13.00475085 40.03027734 15.34828992 40.01757812 17.69189453 C40.01256498 19.27717961 40.00800175 20.86246619 40.00390625 22.44775391 C39.99285809 26.34167063 39.97558384 30.23551659 39.95507812 34.12939453 C37.29644793 35.45870963 35.22224355 35.27336252 32.24804688 35.30517578 C31.10400391 35.32902344 29.95996094 35.35287109 28.78125 35.37744141 C26.36736391 35.42019945 23.95324747 35.45156389 21.5390625 35.47119141 C20.39115234 35.49890625 19.24324219 35.52662109 18.06054688 35.55517578 C17.01020264 35.5697583 15.9598584 35.58434082 14.87768555 35.59936523 C11.29308745 36.24944981 9.64529839 37.74107514 6.95507812 40.12939453 C3.05112813 41.06841281 -0.27729964 40.46314333 -3.91992188 38.87939453 C-6.24416731 36.96531006 -7.16828931 35.99837385 -8.04492188 33.12939453 C-8.48657273 26.94628258 -8.48657273 26.94628258 -7.00585938 24.20751953 C-5.8192143 21.64127895 -6.01223432 20.1516699 -6.41992188 17.37939453 C-6.53078125 16.58017578 -6.64164062 15.78095703 -6.75585938 14.95751953 C-6.85125 14.35423828 -6.94664063 13.75095703 -7.04492188 13.12939453 C-6.38492187 13.12939453 -5.72492187 13.12939453 -5.04492188 13.12939453 C-5.05652344 12.27474609 -5.068125 11.42009766 -5.08007812 10.53955078 C-5.09361328 8.88246094 -5.09361328 8.88246094 -5.10742188 7.19189453 C-5.11902344 6.08974609 -5.130625 4.98759766 -5.14257812 3.85205078 C-4.99060394 -0.38498944 -3.83108246 0.00401762 0 0 Z " fill="#0C0704" transform="translate(9.044921875,4.87060546875)"/>
<path d="M0 0 C13.2 0 26.4 0 40 0 C40 2.31 40 4.62 40 7 C36.04 6.67 32.08 6.34 28 6 C28 6.66 28 7.32 28 8 C31.3 8 34.6 8 38 8 C38 8.33 38 8.66 38 9 C35.36 9 32.72 9 30 9 C30 9.66 30 10.32 30 11 C32.97 11 35.94 11 39 11 C39.33 10.01 39.66 9.02 40 8 C40 14.27 40 20.54 40 27 C39.01 27 38.02 27 37 27 C37 24.69 37 22.38 37 20 C35.35 20 33.7 20 32 20 C31.67 18.68 31.34 17.36 31 16 C29.68 15.67 28.36 15.34 27 15 C27 18.96 27 22.92 27 27 C26.67 27 26.34 27 26 27 C25.67 24.03 25.34 21.06 25 18 C23.68 18 22.36 18 21 18 C21 16.35 21 14.7 21 13 C20.34 13 19.68 13 19 13 C19.33 17.95 19.66 22.9 20 28 C26.6 28.33 33.2 28.66 40 29 C40 29.33 40 29.66 40 30 C32.08 30 24.16 30 16 30 C15.34 27.36 14.68 24.72 14 22 C12.37348276 19.62424158 11.59837454 19.13972739 8.80859375 18.48828125 C8.02613281 18.43027344 7.24367188 18.37226563 6.4375 18.3125 C5.25994141 18.21388672 5.25994141 18.21388672 4.05859375 18.11328125 C2.70724678 18.0389187 1.35339145 18 0 18 C1.75 12.25 1.75 12.25 4 10 C7.5 10.125 7.5 10.125 11 11 C12.4375 13.0625 12.4375 13.0625 13 15 C16.19713358 14.31143065 16.19713358 14.31143065 17.375 11.5 C19 9 19 9 21.6875 8.1875 C22.450625 8.125625 23.21375 8.06375 24 8 C24 6.68 24 5.36 24 4 C23.01 4 22.02 4 21 4 C19.33700035 6.41055254 19.33700035 6.41055254 18 9 C17 10 17 10 13.9375 10.0625 C12.968125 10.041875 11.99875 10.02125 11 10 C10.34 8.35 9.68 6.7 9 5 C7.68 5 6.36 5 5 5 C4.5978125 6.2065625 4.5978125 6.2065625 4.1875 7.4375 C3.5996875 8.7059375 3.5996875 8.7059375 3 10 C2.01 10.33 1.02 10.66 0 11 C0 7.37 0 3.74 0 0 Z " fill="#D8D8D9" transform="translate(6,7)"/>
<path d="M0 0 C0.85758911 -0.00315216 1.71517822 -0.00630432 2.59875488 -0.009552 C3.53102905 -0.00752777 4.46330322 -0.00550354 5.42382812 -0.00341797 C6.84979309 -0.00485306 6.84979309 -0.00485306 8.30456543 -0.00631714 C10.31876695 -0.00699904 12.33297065 -0.00514409 14.34716797 -0.00097656 C17.44178167 0.00437155 20.53625022 -0.00092124 23.63085938 -0.00732422 C25.58268261 -0.00666344 27.53450576 -0.00538228 29.48632812 -0.00341797 C30.88473938 -0.00645432 30.88473938 -0.00645432 32.31140137 -0.009552 C33.16899048 -0.00639984 34.02657959 -0.00324768 34.91015625 0 C35.66880981 0.00079559 36.42746338 0.00159119 37.20910645 0.00241089 C38.95507812 0.12939453 38.95507812 0.12939453 39.95507812 1.12939453 C40.04291354 3.34794717 40.06202421 5.56927949 40.05273438 7.78955078 C40.05131943 8.45401718 40.04990448 9.11848358 40.04844666 9.80308533 C40.04283331 11.93273352 40.03027866 14.06227793 40.01757812 16.19189453 C40.01256484 17.63264823 40.00800164 19.07340356 40.00390625 20.51416016 C39.99285957 24.05260555 39.97558604 27.59098992 39.95507812 31.12939453 C39.62507813 31.12939453 39.29507813 31.12939453 38.95507812 31.12939453 C38.95507812 21.55939453 38.95507812 11.98939453 38.95507812 2.12939453 C25.09507813 2.12939453 11.23507812 2.12939453 -3.04492188 2.12939453 C-3.04492188 5.75939453 -3.04492188 9.38939453 -3.04492188 13.12939453 C0.28409059 10.91005289 0.70531057 9.78256124 1.95507812 6.12939453 C3.60507813 6.45939453 5.25507813 6.78939453 6.95507812 7.12939453 C7.28507812 8.44939453 7.61507813 9.76939453 7.95507812 11.12939453 C10.78581248 11.63108868 10.78581248 11.63108868 13.95507812 11.12939453 C16.37929998 8.2442954 16.37929998 8.2442954 17.95507812 5.12939453 C19.27507813 5.45939453 20.59507813 5.78939453 21.95507812 6.12939453 C21.62507813 7.77939453 21.29507812 9.42939453 20.95507812 11.12939453 C20.02695312 11.35626953 19.09882813 11.58314453 18.14257812 11.81689453 C14.44788629 13.33823823 13.63025051 14.59291949 11.95507812 18.12939453 C10.63507812 17.46939453 9.31507812 16.80939453 7.95507812 16.12939453 C7.95507812 15.13939453 7.95507812 14.14939453 7.95507812 13.12939453 C5.64507812 13.12939453 3.33507812 13.12939453 0.95507812 13.12939453 C-0.36492188 15.76939453 -1.68492188 18.40939453 -3.04492188 21.12939453 C-2.38492187 21.45939453 -1.72492187 21.78939453 -1.04492188 22.12939453 C-2.00398437 22.90283203 -2.00398437 22.90283203 -2.98242188 23.69189453 C-5.60283868 26.78875076 -5.73882005 29.15007076 -6.04492188 33.12939453 C-5.38492187 33.12939453 -4.72492187 33.12939453 -4.04492188 33.12939453 C-1.04492188 36.59093299 -1.04492188 36.59093299 -1.04492188 39.12939453 C-5.61081335 37.68753407 -5.61081335 37.68753407 -7.35742188 35.44189453 C-8.48260113 31.65720068 -8.92909447 27.76478143 -7.00585938 24.20751953 C-5.8192143 21.64127895 -6.01223432 20.1516699 -6.41992188 17.37939453 C-6.53078125 16.58017578 -6.64164062 15.78095703 -6.75585938 14.95751953 C-6.85125 14.35423828 -6.94664063 13.75095703 -7.04492188 13.12939453 C-6.38492187 13.12939453 -5.72492187 13.12939453 -5.04492188 13.12939453 C-5.05652344 12.27474609 -5.068125 11.42009766 -5.08007812 10.53955078 C-5.09361328 8.88246094 -5.09361328 8.88246094 -5.10742188 7.19189453 C-5.11902344 6.08974609 -5.130625 4.98759766 -5.14257812 3.85205078 C-4.99060394 -0.38498944 -3.83108246 0.00401762 0 0 Z " fill="#070605" transform="translate(9.044921875,4.87060546875)"/>
<path d="M0 0 C0.33 0 0.66 0 1 0 C1 10.23 1 20.46 1 31 C-7.58 31 -16.16 31 -25 31 C-25 28.69 -25 26.38 -25 24 C-24.67 24 -24.34 24 -24 24 C-24 25.98 -24 27.96 -24 30 C-22.68 29.67 -21.36 29.34 -20 29 C-20.33 28.67 -20.66 28.34 -21 28 C-21.07313567 25.46950598 -21.09247527 22.96695163 -21.0625 20.4375 C-21.05798828 19.72658203 -21.05347656 19.01566406 -21.04882812 18.28320312 C-21.03700864 16.52209987 -21.01907263 14.76103964 -21 13 C-20.34 13 -19.68 13 -19 13 C-18.67 14.32 -18.34 15.64 -18 17 C-16.68 17.33 -15.36 17.66 -14 18 C-13.67 17.01 -13.34 16.02 -13 15 C-11.35 15.33 -9.7 15.66 -8 16 C-8 17.32 -8 18.64 -8 20 C-6.35 20 -4.7 20 -3 20 C-3 22.31 -3 24.62 -3 27 C-2.01 27 -1.02 27 0 27 C-0.33 21.72 -0.66 16.44 -1 11 C-3.97 11 -6.94 11 -10 11 C-10 10.34 -10 9.68 -10 9 C-10.66 8.67 -11.32 8.34 -12 8 C-12 7.34 -12 6.68 -12 6 C-8.37 6 -4.74 6 -1 6 C-0.67 4.02 -0.34 2.04 0 0 Z " fill="#5F432D" transform="translate(46,7)"/>
<path d="M0 0 C0.66 0.33 1.32 0.66 2 1 C1.01 2.485 1.01 2.485 0 4 C0.01723332 6.62808145 0.13238133 9.08337446 0.375 11.6875 C0.58125 14.100625 0.7875 16.51375 1 19 C7.6 19.33 14.2 19.66 21 20 C21 20.33 21 20.66 21 21 C13.08 21 5.16 21 -3 21 C-3.66 18.36 -4.32 15.72 -5 13 C-6.62651724 10.62424158 -7.40162546 10.13972739 -10.19140625 9.48828125 C-10.97386719 9.43027344 -11.75632812 9.37226563 -12.5625 9.3125 C-13.74005859 9.21388672 -13.74005859 9.21388672 -14.94140625 9.11328125 C-16.29275322 9.0389187 -17.64660855 9 -19 9 C-17.25 3.25 -17.25 3.25 -15 1 C-11.5 1.125 -11.5 1.125 -8 2 C-6.5625 4.0625 -6.5625 4.0625 -6 6 C-2.26360784 4.75453595 -1.81243487 3.36595047 0 0 Z " fill="#EAEAEA" transform="translate(25,16)"/>
<path d="M0 0 C4.19487553 0.38325275 6.35878929 0.60811497 9.6015625 3.46484375 C11.1538137 6.49878928 10.96287251 7.06848112 9.9765625 10.15234375 C9.38488281 10.11753906 8.79320312 10.08273438 8.18359375 10.046875 C3.10992604 9.87306257 0.24002794 10.14283873 -4.0234375 13.15234375 C-5.0134375 13.15234375 -6.0034375 13.15234375 -7.0234375 13.15234375 C-7.35001187 8.47144439 -6.77579983 5.96330697 -4.0234375 2.15234375 C-2.0234375 0.15234375 -2.0234375 0.15234375 0 0 Z " fill="#364128" transform="translate(10.0234375,23.84765625)"/>
<path d="M0 0 C7.59 0 15.18 0 23 0 C22.01 0.99 21.02 1.98 20 3 C18.97695052 4.65261839 17.97383946 6.31791365 17 8 C16 9 16 9 12.9375 9.0625 C11.968125 9.041875 10.99875 9.02125 10 9 C9.34 7.35 8.68 5.7 8 4 C6.68 4 5.36 4 4 4 C3.34 5.65 2.68 7.3 2 9 C1.34 9 0.68 9 0 9 C0 6.03 0 3.06 0 0 Z " fill="#F0F0F0" transform="translate(7,8)"/>
<path d="M0 0 C1.32 0.33 2.64 0.66 4 1 C3.67 2.65 3.34 4.3 3 6 C2.071875 6.226875 1.14375 6.45375 0.1875 6.6875 C-3.50719183 8.2088437 -4.32482761 9.46352496 -6 13 C-7.32 12.34 -8.64 11.68 -10 11 C-10 10.01 -10 9.02 -10 8 C-13.37400578 7.58274322 -13.37400578 7.58274322 -17 8 C-19.00864359 10.3726974 -19.00864359 10.3726974 -20 13 C-20.99 12.67 -21.98 12.34 -23 12 C-23 11.01 -23 10.02 -23 9 C-22.21625 8.54625 -21.4325 8.0925 -20.625 7.625 C-17.55039988 5.72167612 -17.0093586 4.39511528 -16 1 C-14.35 1.33 -12.7 1.66 -11 2 C-10.67 3.32 -10.34 4.64 -10 6 C-7.16926564 6.50169415 -7.16926564 6.50169415 -4 6 C-1.57577814 3.11490087 -1.57577814 3.11490087 0 0 Z " fill="#555555" transform="translate(27,10)"/>
<path d="M0 0 C0.33 0 0.66 0 1 0 C1 10.23 1 20.46 1 31 C-7.58 31 -16.16 31 -25 31 C-25 28.69 -25 26.38 -25 24 C-24.67 24 -24.34 24 -24 24 C-24 25.98 -24 27.96 -24 30 C-16.41 29.67 -8.82 29.34 -1 29 C-1 23.06 -1 17.12 -1 11 C-3.97 11 -6.94 11 -10 11 C-10 10.34 -10 9.68 -10 9 C-10.66 8.67 -11.32 8.34 -12 8 C-12 7.34 -12 6.68 -12 6 C-8.37 6 -4.74 6 -1 6 C-0.67 4.02 -0.34 2.04 0 0 Z " fill="#818181" transform="translate(46,7)"/>
<path d="M0 0 C2.475 0.495 2.475 0.495 5 1 C5 2.32 5 3.64 5 5 C6.65 5 8.3 5 10 5 C10 7.31 10 9.62 10 12 C10.66 12 11.32 12 12 12 C12 12.66 12 13.32 12 14 C8.7 14 5.4 14 2 14 C2.33 9.71 2.66 5.42 3 1 C2.34 1 1.68 1 1 1 C1 4.96 1 8.92 1 13 C0.67 13 0.34 13 0 13 C0 8.71 0 4.42 0 0 Z " fill="#303528" transform="translate(33,22)"/>
<path d="M0 0 C-0.1875 2.3125 -0.1875 2.3125 -1 5 C-3.73357759 7.26496429 -5.60861564 7.94520619 -9.125 8.4375 C-12 8 -12 8 -13.875 6 C-14.24625 5.34 -14.6175 4.68 -15 4 C-9.98010898 -0.11888494 -6.40141012 -0.51211281 0 0 Z " fill="#E23E31" transform="translate(20,35)"/>
<path d="M0 0 C0.43518641 5.30927425 0.43518641 5.30927425 0 8 C-2.83653151 10.45321644 -4.25123496 11 -8 11 C-8.3125 8.3125 -8.3125 8.3125 -8 5 C-3.97826087 0 -3.97826087 0 0 0 Z " fill="#F6BC2B" transform="translate(11,26)"/>
<path d="M0 0 C1.32 0 2.64 0 4 0 C4 1.65 4 3.3 4 5 C3.236875 5.226875 2.47375 5.45375 1.6875 5.6875 C-1.54736301 7.26731682 -2.41641358 8.83282717 -4 12 C-4.99 11.67 -5.98 11.34 -7 11 C-7 10.01 -7 9.02 -7 8 C-6.21625 7.54625 -5.4325 7.0925 -4.625 6.625 C-1.55039988 4.72167612 -1.0093586 3.39511528 0 0 Z " fill="#463021" transform="translate(11,11)"/>
<path d="M0 0 C3.96 0 7.92 0 12 0 C12 1.98 12 3.96 12 6 C7.38 6 2.76 6 -2 6 C-2 5.34 -2 4.68 -2 4 C1.96 4 5.92 4 10 4 C10 3.34 10 2.68 10 2 C7.03 2 4.06 2 1 2 C0.67 1.34 0.34 0.68 0 0 Z " fill="#F0F0F0" transform="translate(34,8)"/>
<path d="M0 0 C2.375 0.6875 2.375 0.6875 5 2 C6.3125 4.625 6.3125 4.625 7 7 C4.69 7 2.38 7 0 7 C0 4.69 0 2.38 0 0 Z " fill="#77AD3F" transform="translate(13,26)"/>
<path d="M0 0 C0 2.64 0 5.28 0 8 C-0.33 8 -0.66 8 -1 8 C-1.33 6.02 -1.66 4.04 -2 2 C-5.2542015 4.83430453 -6.5206753 6.68607774 -7 11 C-7.33 11 -7.66 11 -8 11 C-8.3125 8.3125 -8.3125 8.3125 -8 5 C-3.97826087 0 -3.97826087 0 0 0 Z " fill="#CA9A23" transform="translate(11,26)"/>
<path d="M0 0 C1.98 0.495 1.98 0.495 4 1 C4 2.32 4 3.64 4 5 C2.35 5 0.7 5 -1 5 C-0.67 3.35 -0.34 1.7 0 0 Z " fill="#1C2B3B" transform="translate(27,10)"/>
<path d="M0 0 C1.32 0 2.64 0 4 0 C3.67 1.65 3.34 3.3 3 5 C2.01 4.67 1.02 4.34 0 4 C0 2.68 0 1.36 0 0 Z " fill="#2C381D" transform="translate(18,18)"/>
</svg>
