<?xml version="1.0" encoding="UTF-8"?>
<svg version="1.1" xmlns="http://www.w3.org/2000/svg" width="50" height="50">
<path d="M0 0 C3.59652947 0.68869713 4.75824049 1.65682065 6.9375 4.5625 C7.6875 6.8125 7.6875 6.8125 7.9375 8.5625 C8.2675 8.2325 8.5975 7.9025 8.9375 7.5625 C14.46691176 7.32720588 14.46691176 7.32720588 16.9375 8.5625 C17.040625 7.61375 17.14375 6.665 17.25 5.6875 C17.9375 2.5625 17.9375 2.5625 20.9375 0.5625 C24.5849931 0.23090972 27.03820334 0.08918597 30.3125 1.8125 C32.24242267 3.89087826 32.77997798 4.72710368 32.9375 7.5625 C32.504375 8.655625 32.07125 9.74875 31.625 10.875 C31.398125 12.091875 31.17125 13.30875 30.9375 14.5625 C32.13016593 16.22763664 32.13016593 16.22763664 33.8125 17.75 C36.23842159 20.15386776 36.89277637 21.22019223 37.34375 24.671875 C37.31574181 27.65474739 37.20092806 30.59161693 36.9375 33.5625 C33.14710634 35.69249997 30.28013862 35.72952456 25.9375 35.5625 C25.7828125 36.738125 25.7828125 36.738125 25.625 37.9375 C24.9375 40.5625 24.9375 40.5625 21.9375 42.5625 C15.06942426 43.74205871 6.36563417 44.92605858 -0.0625 41.5625 C-1.625 38.4375 -1.625 38.4375 -2.0625 35.5625 C-3.135 35.583125 -4.2075 35.60375 -5.3125 35.625 C-8.26053899 35.57586602 -10.29654147 35.33966091 -13.0625 34.5625 C-13.82277167 22.07714975 -13.82277167 22.07714975 -12.0546875 18.5546875 C-9.93078044 16.43078044 -7.89662918 15.50720973 -5.0625 14.5625 C-5.5575 14.005625 -6.0525 13.44875 -6.5625 12.875 C-8.39357086 10.05209909 -8.70675021 8.86428235 -8.0625 5.5625 C-5.56365585 2.25520628 -4.11879585 0.75651352 0 0 Z M3.9375 12.5625 C4.9375 14.5625 4.9375 14.5625 4.9375 14.5625 Z M3.9375 16.5625 C4.9375 18.5625 4.9375 18.5625 4.9375 18.5625 Z " fill="#A7A7A7" transform="translate(13.0625,3.4375)"/>
<path d="M0 0 C3.3683309 2.16470179 4.72640811 3.17922434 6 7 C6.1418907 8.68358775 6.22014505 10.37320743 6.25 12.0625 C6.27578125 12.94035156 6.3015625 13.81820312 6.328125 14.72265625 C6.21984375 15.47417969 6.1115625 16.22570312 6 17 C0.65445384 20.56369744 -6.58359066 20.46268745 -12.85546875 19.61328125 C-14.92178541 19.15008467 -16.96518664 18.58630215 -19 18 C-19.75510103 6.5392444 -19.75510103 6.5392444 -17.375 1.6875 C-11.88754763 -1.05622618 -6.00048405 -1.00702568 0 0 Z " fill="#0E0E0E" transform="translate(32,27)"/>
<path d="M0 0 C5.25843353 0.09560788 5.25843353 0.09560788 8.375 2.125 C10.38518701 7.10260593 10.18365013 12.07188711 9.6875 17.375 C8.6875 18.375 8.6875 18.375 6.62109375 18.47265625 C5.79738281 18.46105469 4.97367188 18.44945313 4.125 18.4375 C3.29871094 18.42847656 2.47242188 18.41945313 1.62109375 18.41015625 C0.66396484 18.39275391 0.66396484 18.39275391 -0.3125 18.375 C-0.56 17.3025 -0.8075 16.23 -1.0625 15.125 C-2.32179634 11.34711098 -3.28047052 9.83852396 -6.3125 7.375 C-6.9725 7.045 -7.6325 6.715 -8.3125 6.375 C-6.21712244 0.92701835 -5.90929765 0.20349899 0 0 Z " fill="#0A0A0A" transform="translate(40.3125,19.625)"/>
<path d="M0 0 C2 3 2 3 1.9375 4.875 C1 7 1 7 -1.5 9.375 C-4.33215519 12.34876295 -4.71947436 13.97913254 -5 18 C-8.63 17.67 -12.26 17.34 -16 17 C-16.80357143 6.01785714 -16.80357143 6.01785714 -13.625 2.3125 C-9.7095369 -0.92852926 -4.83511411 -1.12181604 0 0 Z " fill="#040404" transform="translate(16,20)"/>
<path d="M0 0 C2.60669911 1.3719469 3.67509706 2.22523145 4.8125 4.9375 C5.03062315 7.33685466 4.93527043 8.76973974 4 11 C1.40548538 13.79409267 0.12904443 13.99354778 -3.75 14.1875 C-4.8225 14.125625 -5.895 14.06375 -7 14 C-7.33 12.35 -7.66 10.7 -8 9 C-8.99 8.67 -9.98 8.34 -11 8 C-10.6875 5.125 -10.6875 5.125 -10 2 C-6.28986601 -0.47342266 -4.38939738 -0.38503486 0 0 Z " fill="#121212" transform="translate(41,4)"/>
<path d="M0 0 C2.375 1.5 2.375 1.5 4 4 C4.58428517 6.9631605 4.39344818 8.90159561 4 12 C2.4375 14.0625 2.4375 14.0625 0 15 C-6.32727273 14.67272727 -6.32727273 14.67272727 -9 12 C-9.30078125 9.94140625 -9.30078125 9.94140625 -9.3125 7.5625 C-9.32925781 6.78003906 -9.34601562 5.99757813 -9.36328125 5.19140625 C-8.48209723 -0.12412314 -4.80602406 -0.68657487 0 0 Z " fill="#0F0F0F" transform="translate(28,11)"/>
<path d="M0 0 C3.61546049 0.69232222 4.82975302 1.56301391 6.9375 4.5625 C7.1875 7.3125 7.1875 7.3125 6.9375 9.5625 C5.9475 9.8925 4.9575 10.2225 3.9375 10.5625 C3.9375 11.8825 3.9375 13.2025 3.9375 14.5625 C-4.30242322 15.184381 -4.30242322 15.184381 -7.125 12.875 C-8.26915743 10.052745 -8.6503683 8.57532506 -8.0625 5.5625 C-5.56365585 2.25520628 -4.11879585 0.75651352 0 0 Z " fill="#131313" transform="translate(13.0625,3.4375)"/>
<path d="M0 0 C0.66 0 1.32 0 2 0 C0.125 3.875 0.125 3.875 -1 5 C-1.23427778 7.01594582 -1.41336124 9.038474 -1.5625 11.0625 C-1.64628906 12.16722656 -1.73007813 13.27195312 -1.81640625 14.41015625 C-1.87699219 15.26480469 -1.93757812 16.11945312 -2 17 C-4 14 -4 14 -4 12 C-5.0725 12.04125 -6.145 12.0825 -7.25 12.125 C-10.65747485 12.0114175 -12.20739631 11.78726636 -15 10 C-13.741875 9.979375 -12.48375 9.95875 -11.1875 9.9375 C-10.47980469 9.92589844 -9.77210937 9.91429687 -9.04296875 9.90234375 C-7 10 -7 10 -4 11 C-4.12375 9.6696875 -4.12375 9.6696875 -4.25 8.3125 C-3.94608803 4.28566635 -2.81763407 2.81763407 0 0 Z " fill="#C3C3C3" transform="translate(15,27)"/>
<path d="M0 0 C2 3.875 2 3.875 2 5 C-1.63 5.33 -5.26 5.66 -9 6 C-8.67 5.01 -8.34 4.02 -8 3 C-5.68970915 2.25740651 -3.354248 1.588562 -1 1 C-0.67 0.67 -0.34 0.34 0 0 Z " fill="#838383" transform="translate(43,15)"/>
<path d="M0 0 C0 0.33 0 0.66 0 1 C-1.0725 1.268125 -2.145 1.53625 -3.25 1.8125 C-6.56508928 2.86227827 -8.43877646 3.74612328 -11 6 C-8.67640938 -0.47285958 -6.6985661 -0.12404752 0 0 Z " fill="#4F4F4F" transform="translate(41,4)"/>
</svg>
