<?xml version="1.0" encoding="UTF-8"?>
<svg version="1.1" xmlns="http://www.w3.org/2000/svg" width="512" height="512">
<path d="M0 0 C0.99604248 0.27287842 0.99604248 0.27287842 2.01220703 0.55126953 C35.54523877 9.89708834 65.66487031 33.92705669 82.9140625 63.984375 C101.33720219 97.26677332 106.04318059 134.81676374 96.04956055 171.62817383 C93.14387126 181.71772031 89.08125829 190.83703372 84 200 C83.4225 201.07894531 82.845 202.15789062 82.25 203.26953125 C78.22972408 210.51905658 73.43427559 216.75792669 68 223 C66.9171875 224.28390625 66.9171875 224.28390625 65.8125 225.59375 C55.4267646 237.61152954 41.99743825 247.51299815 28 255 C28.5971582 255.23726807 29.19431641 255.47453613 29.80957031 255.71899414 C53.06574828 264.98674788 75.43017582 275.08836484 95 291 C96.30324219 292.01900391 96.30324219 292.01900391 97.6328125 293.05859375 C108.50302567 301.69455028 119.27106526 311.16540117 128 322 C128.88479526 323.05000312 129.7702805 324.099425 130.65625 325.1484375 C161.30263953 361.91101679 180.01154419 409.29346097 180.25 457.3125 C180.2809375 458.89901367 180.2809375 458.89901367 180.3125 460.51757812 C180.31765625 461.53916016 180.3228125 462.56074219 180.328125 463.61328125 C180.3374707 464.52891846 180.34681641 465.44455566 180.35644531 466.38793945 C179.92160457 469.57448814 178.88515319 471.41219379 177 474 C172.34186237 477.10542508 167.45168836 476.74307763 162 476 C159.02638914 473.78436838 157.63040207 472.26080415 156 469 C155.76436367 466.72930579 155.58109837 464.45310964 155.421875 462.17578125 C155.31595794 460.7516269 155.20889564 459.32755738 155.10083008 457.90356445 C155.04440338 457.15450836 154.98797668 456.40545227 154.92984009 455.63369751 C151.42454604 410.39083814 136.09458522 368.86084617 104.98828125 335.17578125 C103.39293179 333.42998626 101.90064268 331.66711898 100.4375 329.8125 C97.25619031 326.14175805 93.71039348 323.12291452 90 320 C89.1234375 319.23558594 88.246875 318.47117187 87.34375 317.68359375 C48.91776765 284.6806331 -1.62379139 269.09545842 -51.9375 272.625 C-85.34132917 275.37021612 -118.58568052 286.51313341 -146 306 C-147.04285156 306.73992187 -148.08570313 307.47984375 -149.16015625 308.2421875 C-155.01915156 312.52347611 -160.49439552 317.08992026 -165.82421875 322.01171875 C-167.57001374 323.60706821 -169.33288102 325.09935732 -171.1875 326.5625 C-174.85824195 329.74380969 -177.87708548 333.28960652 -181 337 C-181.76441406 337.8765625 -182.52882813 338.753125 -183.31640625 339.65625 C-199.93402869 359.00446768 -212.29648888 381.69382297 -220 406 C-220.23799316 406.74556152 -220.47598633 407.49112305 -220.72119141 408.25927734 C-226.06364293 425.33809155 -228.24376907 442.44143787 -229.1784668 460.28125 C-229.24332275 461.34085937 -229.30817871 462.40046875 -229.375 463.4921875 C-229.42398438 464.43433105 -229.47296875 465.37647461 -229.5234375 466.34716797 C-230.20550258 470.14395034 -231.64646721 473.05853639 -234.84765625 475.28515625 C-239.15566609 476.71594718 -243.53996986 476.66735266 -248 476 C-250.89683868 473.7984026 -252.39297231 472.21405538 -254 469 C-257.92849571 422.53537833 -241.18108332 373.32458937 -214 336 C-213.60103516 335.44699219 -213.20207031 334.89398438 -212.79101562 334.32421875 C-206.88513234 326.20244045 -200.3719865 318.73990068 -193.42871094 311.49169922 C-192.11334782 310.11834504 -190.8099915 308.7335176 -189.5078125 307.34765625 C-183.40814541 301.01800171 -176.78243401 295.60418974 -169.77050781 290.33496094 C-168.11296431 289.08517496 -166.4743031 287.81380338 -164.8359375 286.5390625 C-145.9326785 272.13283228 -124.13275469 263.12208917 -102 255 C-102.95519531 254.45472656 -103.91039062 253.90945313 -104.89453125 253.34765625 C-113.22068071 248.521279 -120.74917058 243.37362341 -128 237 C-128.85207031 236.28070313 -129.70414062 235.56140625 -130.58203125 234.8203125 C-156.09352435 212.79656577 -172.44395885 178.53208646 -175 145 C-176.87257255 106.67664388 -166.18560257 70.88143478 -140.5625 41.875 C-139.04984925 40.2423804 -137.52895337 38.61736224 -136 37 C-135.24203125 36.17757812 -134.4840625 35.35515625 -133.703125 34.5078125 C-100.67871496 -0.13544117 -45.61994288 -13.19065585 0 0 Z M-124 59 C-134.99236273 72.22389501 -142.36470875 87.49555387 -147 104 C-147.47953125 105.66289062 -147.47953125 105.66289062 -147.96875 107.359375 C-154.868853 135.59868542 -148.84822668 164.89953137 -134.90625 189.87890625 C-131.64021839 195.22636374 -127.95287321 200.14398689 -124 205 C-123.26265625 205.91523438 -122.5253125 206.83046875 -121.765625 207.7734375 C-102.62167769 230.19369794 -74.17686731 243.32817497 -45.05371094 245.65600586 C-14.67017051 247.61377118 13.91763696 237.7310901 37 218 C38.23169922 216.98679688 38.23169922 216.98679688 39.48828125 215.953125 C59.93250643 198.52943076 73.10412619 171.52729692 76 145 C77.83683985 109.94031773 68.818302 80.11043592 45.2578125 53.90625 C25.58720405 32.82770408 -2.55046197 20.12900038 -31.265625 18.6796875 C-66.95544578 17.59040542 -100.50612425 32.1218971 -124 59 Z " fill="#000000" transform="translate(293,20)"/>
</svg>
